<svg width="1536" height="768" viewBox="0 0 1536 768" fill="none" xmlns="http://www.w3.org/2000/svg">
<path d="M755.56 820.914C755.56 820.914 753.123 801.6 740.412 789.398C727.709 777.191 720.248 769.228 715.262 764.409C715.262 764.409 707.192 773.425 684.974 790.839C670.709 802.02 671.884 820.914 671.884 820.914" stroke="#047857" stroke-opacity="0.3" stroke-width="4.66667" stroke-miterlimit="10" stroke-linecap="round" stroke-linejoin="round"/>
<path d="M326.065 -14.6058V34.1968" stroke="#047857" stroke-opacity="0.3" stroke-width="4.66667" stroke-miterlimit="10" stroke-linecap="round" stroke-linejoin="round"/>
<path d="M305.515 7.16558C305.515 7.16558 248.432 17.1006 223.994 -47.5176C206.38 -94.1388 215.477 -156.555 215.698 -310.057" stroke="#047857" stroke-opacity="0.3" stroke-width="4.66667" stroke-miterlimit="10" stroke-linecap="round" stroke-linejoin="round"/>
<path d="M348.571 7.08845C348.571 7.08845 403.289 17.1006 427.715 -47.5177C445.34 -94.1388 436.233 -156.555 436.002 -310.057" stroke="#047857" stroke-opacity="0.3" stroke-width="4.66667" stroke-miterlimit="10" stroke-linecap="round" stroke-linejoin="round"/>
<path d="M580.238 144.805V121.347" stroke="#047857" stroke-opacity="0.3" stroke-width="4.66667" stroke-miterlimit="10" stroke-linecap="round" stroke-linejoin="round"/>
<path d="M580.238 183.841V158.131" stroke="#047857" stroke-opacity="0.3" stroke-width="4.66667" stroke-miterlimit="10" stroke-linecap="round" stroke-linejoin="round"/>
<path d="M580.238 232.668V197.976" stroke="#047857" stroke-opacity="0.3" stroke-width="4.66667" stroke-miterlimit="10" stroke-linecap="round" stroke-linejoin="round"/>
<path d="M580.238 246.349C580.238 246.349 604.039 258.335 580.238 288.5C580.238 288.5 558.148 263.435 580.238 246.349Z" stroke="#047857" stroke-opacity="0.3" stroke-width="4.66667" stroke-miterlimit="10" stroke-linecap="round" stroke-linejoin="round"/>
<path d="M580.62 220.097C608.897 236.473 595.61 265.983 595.61 265.983L590.813 263.82" stroke="#047857" stroke-opacity="0.3" stroke-width="4.66667" stroke-miterlimit="10" stroke-linecap="round" stroke-linejoin="round"/>
<path d="M580.046 220.097C548.802 236.473 565.376 265.983 565.376 265.983L570.427 263.946" stroke="#047857" stroke-opacity="0.3" stroke-width="4.66667" stroke-miterlimit="10" stroke-linecap="round" stroke-linejoin="round"/>
<path d="M580.046 183.841C623.189 192.203 608.897 243.417 608.897 243.417C608.897 243.417 605.327 241.316 597.884 238.569" stroke="#047857" stroke-opacity="0.3" stroke-width="4.66667" stroke-miterlimit="10" stroke-linecap="round" stroke-linejoin="round"/>
<path d="M580.046 144.805C635.293 144.762 621.346 207.041 621.346 207.041C621.346 207.041 611.17 200.517 604.039 198.441" stroke="#047857" stroke-opacity="0.3" stroke-width="4.66667" stroke-miterlimit="10" stroke-linecap="round" stroke-linejoin="round"/>
<path d="M580.413 144.805C525.17 144.762 539.12 207.041 539.12 207.041C539.12 207.041 549.297 200.517 556.427 198.441" stroke="#047857" stroke-opacity="0.3" stroke-width="4.66667" stroke-miterlimit="10" stroke-linecap="round" stroke-linejoin="round"/>
<path d="M580.478 183.841C537.333 192.203 551.62 243.417 551.62 243.417C551.62 243.417 555.192 241.316 562.631 238.569" stroke="#047857" stroke-opacity="0.3" stroke-width="4.66667" stroke-miterlimit="10" stroke-linecap="round" stroke-linejoin="round"/>
<path d="M590.117 134.338C590.117 134.338 617.554 129.566 629.301 160.623C637.767 183.031 633.396 213.037 633.288 286.819" stroke="#047857" stroke-opacity="0.3" stroke-width="4.66667" stroke-miterlimit="10" stroke-linecap="round" stroke-linejoin="round"/>
<path d="M569.419 134.379C569.419 134.379 543.118 129.566 531.379 160.623C522.907 183.031 527.282 213.037 527.396 286.819" stroke="#047857" stroke-opacity="0.3" stroke-width="4.66667" stroke-miterlimit="10" stroke-linecap="round" stroke-linejoin="round"/>
<path d="M664.698 636.418V685.223" stroke="#047857" stroke-opacity="0.3" stroke-width="4.66667" stroke-miterlimit="10" stroke-linecap="round" stroke-linejoin="round"/>
<path d="M664.698 555.205V608.699" stroke="#047857" stroke-opacity="0.3" stroke-width="4.66667" stroke-miterlimit="10" stroke-linecap="round" stroke-linejoin="round"/>
<path d="M664.698 453.631V525.802" stroke="#047857" stroke-opacity="0.3" stroke-width="4.66667" stroke-miterlimit="10" stroke-linecap="round" stroke-linejoin="round"/>
<path d="M664.698 425.161C664.698 425.161 615.183 400.228 664.698 337.475C664.698 337.475 710.652 389.619 664.698 425.161Z" stroke="#047857" stroke-opacity="0.3" stroke-width="4.66667" stroke-miterlimit="10" stroke-linecap="round" stroke-linejoin="round"/>
<path d="M663.909 479.779C605.078 445.711 632.726 384.319 632.726 384.319L642.693 388.818" stroke="#047857" stroke-opacity="0.3" stroke-width="4.66667" stroke-miterlimit="10" stroke-linecap="round" stroke-linejoin="round"/>
<path d="M665.098 479.779C730.1 445.711 695.619 384.319 695.619 384.319L685.112 388.552" stroke="#047857" stroke-opacity="0.3" stroke-width="4.66667" stroke-miterlimit="10" stroke-linecap="round" stroke-linejoin="round"/>
<path d="M665.098 555.205C575.344 537.815 605.078 431.269 605.078 431.269C605.078 431.269 612.501 435.638 627.986 441.356" stroke="#047857" stroke-opacity="0.3" stroke-width="4.66667" stroke-miterlimit="10" stroke-linecap="round" stroke-linejoin="round"/>
<path d="M665.098 636.418C550.161 636.505 579.177 506.944 579.177 506.944C579.177 506.944 600.35 520.516 615.183 524.832" stroke="#047857" stroke-opacity="0.3" stroke-width="4.66667" stroke-miterlimit="10" stroke-linecap="round" stroke-linejoin="round"/>
<path d="M664.329 636.418C779.268 636.505 750.242 506.944 750.242 506.944C750.242 506.944 729.065 520.516 714.235 524.832" stroke="#047857" stroke-opacity="0.3" stroke-width="4.66667" stroke-miterlimit="10" stroke-linecap="round" stroke-linejoin="round"/>
<path d="M664.205 555.205C753.959 537.815 724.233 431.269 724.233 431.269C724.233 431.269 716.802 435.638 701.326 441.356" stroke="#047857" stroke-opacity="0.3" stroke-width="4.66667" stroke-miterlimit="10" stroke-linecap="round" stroke-linejoin="round"/>
<path d="M644.148 658.192C644.148 658.192 587.065 668.129 562.627 603.51C545.013 556.889 554.108 494.469 554.331 340.969" stroke="#047857" stroke-opacity="0.3" stroke-width="4.66667" stroke-miterlimit="10" stroke-linecap="round" stroke-linejoin="round"/>
<path d="M687.204 658.113C687.204 658.113 741.922 668.129 766.348 603.51C783.973 556.889 774.866 494.469 774.635 340.969" stroke="#047857" stroke-opacity="0.3" stroke-width="4.66667" stroke-miterlimit="10" stroke-linecap="round" stroke-linejoin="round"/>
<path d="M1229.29 186.71V137.906" stroke="#047857" stroke-opacity="0.3" stroke-width="4.66667" stroke-miterlimit="10" stroke-linecap="round" stroke-linejoin="round"/>
<path d="M1229.29 267.925V214.429" stroke="#047857" stroke-opacity="0.3" stroke-width="4.66667" stroke-miterlimit="10" stroke-linecap="round" stroke-linejoin="round"/>
<path d="M1229.29 369.502V297.329" stroke="#047857" stroke-opacity="0.3" stroke-width="4.66667" stroke-miterlimit="10" stroke-linecap="round" stroke-linejoin="round"/>
<path d="M1229.29 397.969C1229.29 397.969 1278.8 422.898 1229.29 485.658C1229.29 485.658 1183.33 433.513 1229.29 397.969Z" stroke="#047857" stroke-opacity="0.3" stroke-width="4.66667" stroke-miterlimit="10" stroke-linecap="round" stroke-linejoin="round"/>
<path d="M1230.08 343.347C1288.91 377.416 1261.26 438.812 1261.26 438.812L1251.29 434.313" stroke="#047857" stroke-opacity="0.3" stroke-width="4.66667" stroke-miterlimit="10" stroke-linecap="round" stroke-linejoin="round"/>
<path d="M1228.89 343.347C1163.88 377.416 1198.36 438.812 1198.36 438.812L1208.87 434.575" stroke="#047857" stroke-opacity="0.3" stroke-width="4.66667" stroke-miterlimit="10" stroke-linecap="round" stroke-linejoin="round"/>
<path d="M1228.89 267.925C1318.64 285.316 1288.91 391.862 1288.91 391.862C1288.91 391.862 1281.49 387.491 1266 381.776" stroke="#047857" stroke-opacity="0.3" stroke-width="4.66667" stroke-miterlimit="10" stroke-linecap="round" stroke-linejoin="round"/>
<path d="M1228.89 186.71C1343.82 186.627 1314.81 316.186 1314.81 316.186C1314.81 316.186 1293.63 302.617 1278.8 298.301" stroke="#047857" stroke-opacity="0.3" stroke-width="4.66667" stroke-miterlimit="10" stroke-linecap="round" stroke-linejoin="round"/>
<path d="M1229.66 186.71C1114.72 186.627 1143.75 316.186 1143.75 316.186C1143.75 316.186 1164.92 302.617 1179.75 298.301" stroke="#047857" stroke-opacity="0.3" stroke-width="4.66667" stroke-miterlimit="10" stroke-linecap="round" stroke-linejoin="round"/>
<path d="M1229.78 267.925C1140.03 285.316 1169.75 391.862 1169.75 391.862C1169.75 391.862 1177.18 387.491 1192.66 381.776" stroke="#047857" stroke-opacity="0.3" stroke-width="4.66667" stroke-miterlimit="10" stroke-linecap="round" stroke-linejoin="round"/>
<path d="M1249.84 164.939C1249.84 164.939 1306.92 155.004 1331.36 219.62C1348.97 266.241 1339.87 328.66 1339.65 482.161" stroke="#047857" stroke-opacity="0.3" stroke-width="4.66667" stroke-miterlimit="10" stroke-linecap="round" stroke-linejoin="round"/>
<path d="M1206.78 165.018C1206.78 165.018 1152.06 155.004 1127.64 219.62C1110.01 266.241 1119.12 328.66 1119.35 482.161" stroke="#047857" stroke-opacity="0.3" stroke-width="4.66667" stroke-miterlimit="10" stroke-linecap="round" stroke-linejoin="round"/>
<path d="M538.023 19.9089C538.023 19.9089 576.6 -17.0369 537.4 -53.9746C537.4 -53.9746 498.836 -24.1899 538.023 19.9089Z" stroke="#047857" stroke-opacity="0.3" stroke-width="4.66667" stroke-miterlimit="10" stroke-linecap="round" stroke-linejoin="round"/>
<path d="M538.023 48.046V60.7428" stroke="#047857" stroke-opacity="0.3" stroke-width="4.66667" stroke-miterlimit="10" stroke-linecap="round" stroke-linejoin="round"/>
<path d="M554.352 -10.8031C568.631 -23.506 591.218 -30.174 591.218 -30.174C590.707 31.2178 538.023 19.909 538.023 19.909V29.2799" stroke="#047857" stroke-opacity="0.3" stroke-width="4.66667" stroke-miterlimit="10" stroke-linecap="round" stroke-linejoin="round"/>
<path d="M534.764 19.9089C534.764 19.9089 482.075 31.2177 481.558 -30.1741C481.558 -30.1741 504.143 -23.506 518.431 -10.8031" stroke="#047857" stroke-opacity="0.3" stroke-width="4.66667" stroke-miterlimit="10" stroke-linecap="round" stroke-linejoin="round"/>
<path d="M446.542 350.251C446.542 350.251 407.962 387.197 447.163 424.136C447.163 424.136 485.726 394.352 446.542 350.251Z" stroke="#047857" stroke-opacity="0.3" stroke-width="4.66667" stroke-miterlimit="10" stroke-linecap="round" stroke-linejoin="round"/>
<path d="M431.069 450.94C423.273 464.664 421.779 488.298 445.245 519.54C445.245 519.54 481.065 484.81 461.341 452.038" stroke="#047857" stroke-opacity="0.3" stroke-width="4.66667" stroke-miterlimit="10" stroke-linecap="round" stroke-linejoin="round"/>
<path d="M431.536 400.336C417.834 421.941 425.805 449.012 446.542 476.614C446.542 476.614 478.573 440.021 462.173 404.414" stroke="#047857" stroke-opacity="0.3" stroke-width="4.66667" stroke-miterlimit="10" stroke-linecap="round" stroke-linejoin="round"/>
<path d="M446.542 322.116V309.417" stroke="#047857" stroke-opacity="0.3" stroke-width="4.66667" stroke-miterlimit="10" stroke-linecap="round" stroke-linejoin="round"/>
<path d="M430.213 380.963C415.933 393.665 393.346 400.336 393.346 400.336C393.857 338.944 446.542 350.25 446.542 350.25V340.882" stroke="#047857" stroke-opacity="0.3" stroke-width="4.66667" stroke-miterlimit="10" stroke-linecap="round" stroke-linejoin="round"/>
<path d="M449.798 350.25C449.798 350.25 502.487 338.944 503.006 400.336C503.006 400.336 480.419 393.665 466.132 380.963" stroke="#047857" stroke-opacity="0.3" stroke-width="4.66667" stroke-miterlimit="10" stroke-linecap="round" stroke-linejoin="round"/>
<path d="M427.922 442.683C427.922 442.683 418.912 453.698 400.503 457.277C400.503 457.277 391.254 418.341 410.97 393.304" stroke="#047857" stroke-opacity="0.3" stroke-width="4.66667" stroke-miterlimit="10" stroke-linecap="round" stroke-linejoin="round"/>
<path d="M466.901 442.683C466.901 442.683 475.898 453.698 494.311 457.277C494.311 457.277 503.569 418.341 483.851 393.304" stroke="#047857" stroke-opacity="0.3" stroke-width="4.66667" stroke-miterlimit="10" stroke-linecap="round" stroke-linejoin="round"/>
<path d="M407.151 455.561C402.041 467.137 407.151 503.825 407.151 503.825C420.974 499.223 427.922 485.966 427.922 485.966" stroke="#047857" stroke-opacity="0.3" stroke-width="4.66667" stroke-miterlimit="10" stroke-linecap="round" stroke-linejoin="round"/>
<path d="M464.127 519.54L464.222 561.171" stroke="#047857" stroke-opacity="0.3" stroke-width="4.66667" stroke-miterlimit="10" stroke-linecap="round" stroke-linejoin="round"/>
<path d="M465.367 485.966C465.367 485.966 472.327 499.223 486.13 503.825C486.13 503.825 491.259 467.137 486.13 455.561" stroke="#047857" stroke-opacity="0.3" stroke-width="4.66667" stroke-miterlimit="10" stroke-linecap="round" stroke-linejoin="round"/>
<path d="M445.245 543.7V589.422" stroke="#047857" stroke-opacity="0.3" stroke-width="4.66667" stroke-miterlimit="10" stroke-linecap="round" stroke-linejoin="round"/>
<path d="M425.935 561.171V519.54" stroke="#047857" stroke-opacity="0.3" stroke-width="4.66667" stroke-miterlimit="10" stroke-linecap="round" stroke-linejoin="round"/>
<path d="M486.13 503.825V533.614" stroke="#047857" stroke-opacity="0.3" stroke-width="4.66667" stroke-miterlimit="10" stroke-linecap="round" stroke-linejoin="round"/>
<path d="M407.737 503.825V533.614" stroke="#047857" stroke-opacity="0.3" stroke-width="4.66667" stroke-miterlimit="10" stroke-linecap="round" stroke-linejoin="round"/>
<path d="M1027.13 229.042C1027.13 229.042 1065.71 192.096 1026.51 155.158C1026.51 155.158 987.948 184.943 1027.13 229.042Z" stroke="#047857" stroke-opacity="0.3" stroke-width="4.66667" stroke-miterlimit="10" stroke-linecap="round" stroke-linejoin="round"/>
<path d="M1042.61 128.354C1050.4 114.624 1051.9 90.9922 1028.43 59.7525C1028.43 59.7525 992.609 94.4805 1012.33 127.256" stroke="#047857" stroke-opacity="0.3" stroke-width="4.66667" stroke-miterlimit="10" stroke-linecap="round" stroke-linejoin="round"/>
<path d="M1042.14 178.957C1055.84 157.354 1047.87 130.28 1027.13 102.679C1027.13 102.679 995.107 139.269 1011.51 174.876" stroke="#047857" stroke-opacity="0.3" stroke-width="4.66667" stroke-miterlimit="10" stroke-linecap="round" stroke-linejoin="round"/>
<path d="M1027.13 257.177V269.875" stroke="#047857" stroke-opacity="0.3" stroke-width="4.66667" stroke-miterlimit="10" stroke-linecap="round" stroke-linejoin="round"/>
<path d="M1043.46 198.325C1057.74 185.623 1080.33 178.957 1080.33 178.957C1079.82 240.344 1027.13 229.042 1027.13 229.042V238.411" stroke="#047857" stroke-opacity="0.3" stroke-width="4.66667" stroke-miterlimit="10" stroke-linecap="round" stroke-linejoin="round"/>
<path d="M1023.87 229.042C1023.87 229.042 971.193 240.344 970.673 178.957C970.673 178.957 993.26 185.623 1007.54 198.325" stroke="#047857" stroke-opacity="0.3" stroke-width="4.66667" stroke-miterlimit="10" stroke-linecap="round" stroke-linejoin="round"/>
<path d="M1045.75 136.605C1045.75 136.605 1054.76 125.594 1073.17 122.017C1073.17 122.017 1082.42 160.947 1062.7 185.988" stroke="#047857" stroke-opacity="0.3" stroke-width="4.66667" stroke-miterlimit="10" stroke-linecap="round" stroke-linejoin="round"/>
<path d="M1006.78 136.605C1006.78 136.605 997.777 125.594 979.368 122.017C979.368 122.017 970.109 160.947 989.827 185.988" stroke="#047857" stroke-opacity="0.3" stroke-width="4.66667" stroke-miterlimit="10" stroke-linecap="round" stroke-linejoin="round"/>
<path d="M1066.52 123.732C1071.63 112.151 1066.52 75.4668 1066.52 75.4668C1052.7 80.065 1045.75 93.3259 1045.75 93.3259" stroke="#047857" stroke-opacity="0.3" stroke-width="4.66667" stroke-miterlimit="10" stroke-linecap="round" stroke-linejoin="round"/>
<path d="M1009.55 59.7524L1009.46 18.1232" stroke="#047857" stroke-opacity="0.3" stroke-width="4.66667" stroke-miterlimit="10" stroke-linecap="round" stroke-linejoin="round"/>
<path d="M1008.31 93.3259C1008.31 93.3259 1001.35 80.065 987.544 75.4668C987.544 75.4668 982.42 112.151 987.544 123.732" stroke="#047857" stroke-opacity="0.3" stroke-width="4.66667" stroke-miterlimit="10" stroke-linecap="round" stroke-linejoin="round"/>
<path d="M1028.43 35.5927V-10.1276" stroke="#047857" stroke-opacity="0.3" stroke-width="4.66667" stroke-miterlimit="10" stroke-linecap="round" stroke-linejoin="round"/>
<path d="M1047.74 18.1232V59.7524" stroke="#047857" stroke-opacity="0.3" stroke-width="4.66667" stroke-miterlimit="10" stroke-linecap="round" stroke-linejoin="round"/>
<path d="M987.544 75.4668V45.68" stroke="#047857" stroke-opacity="0.3" stroke-width="4.66667" stroke-miterlimit="10" stroke-linecap="round" stroke-linejoin="round"/>
<path d="M1065.94 75.4668V45.68" stroke="#047857" stroke-opacity="0.3" stroke-width="4.66667" stroke-miterlimit="10" stroke-linecap="round" stroke-linejoin="round"/>
<path d="M1458.94 317.091C1458.94 317.091 1414.87 359.295 1459.65 401.488C1459.65 401.488 1503.7 367.464 1458.94 317.091Z" stroke="#047857" stroke-opacity="0.3" stroke-width="4.66667" stroke-miterlimit="10" stroke-linecap="round" stroke-linejoin="round"/>
<path d="M1441.26 432.105C1432.36 447.789 1430.65 474.785 1457.45 510.471C1457.45 510.471 1498.37 470.8 1475.84 433.361" stroke="#047857" stroke-opacity="0.3" stroke-width="4.66667" stroke-miterlimit="10" stroke-linecap="round" stroke-linejoin="round"/>
<path d="M1441.8 374.301C1426.14 398.98 1435.25 429.905 1458.94 461.433C1458.94 461.433 1495.52 419.638 1476.79 378.966" stroke="#047857" stroke-opacity="0.3" stroke-width="4.66667" stroke-miterlimit="10" stroke-linecap="round" stroke-linejoin="round"/>
<path d="M1458.94 284.953V270.446" stroke="#047857" stroke-opacity="0.3" stroke-width="4.66667" stroke-miterlimit="10" stroke-linecap="round" stroke-linejoin="round"/>
<path d="M1440.28 352.178C1423.97 366.687 1398.17 374.301 1398.17 374.301C1398.75 304.173 1458.94 317.091 1458.94 317.091V306.385" stroke="#047857" stroke-opacity="0.3" stroke-width="4.66667" stroke-miterlimit="10" stroke-linecap="round" stroke-linejoin="round"/>
<path d="M1462.66 317.091C1462.66 317.091 1522.84 304.173 1523.44 374.301C1523.44 374.301 1497.63 366.687 1481.32 352.178" stroke="#047857" stroke-opacity="0.3" stroke-width="4.66667" stroke-miterlimit="10" stroke-linecap="round" stroke-linejoin="round"/>
<path d="M1437.67 422.677C1437.67 422.677 1427.38 435.256 1406.35 439.347C1406.35 439.347 1395.78 394.875 1418.3 366.271" stroke="#047857" stroke-opacity="0.3" stroke-width="4.66667" stroke-miterlimit="10" stroke-linecap="round" stroke-linejoin="round"/>
<path d="M1482.19 422.677C1482.19 422.677 1492.47 435.256 1513.5 439.347C1513.5 439.347 1524.08 394.875 1501.56 366.271" stroke="#047857" stroke-opacity="0.3" stroke-width="4.66667" stroke-miterlimit="10" stroke-linecap="round" stroke-linejoin="round"/>
<path d="M1413.94 437.385C1408.11 450.613 1413.94 492.519 1413.94 492.519C1429.73 487.267 1437.67 472.119 1437.67 472.119" stroke="#047857" stroke-opacity="0.3" stroke-width="4.66667" stroke-miterlimit="10" stroke-linecap="round" stroke-linejoin="round"/>
<path d="M1479.03 510.471L1479.13 558.028" stroke="#047857" stroke-opacity="0.3" stroke-width="4.66667" stroke-miterlimit="10" stroke-linecap="round" stroke-linejoin="round"/>
<path d="M1480.44 472.119C1480.44 472.119 1488.39 487.267 1504.16 492.519C1504.16 492.519 1510.02 450.613 1504.16 437.385" stroke="#047857" stroke-opacity="0.3" stroke-width="4.66667" stroke-miterlimit="10" stroke-linecap="round" stroke-linejoin="round"/>
<path d="M1457.45 538.068V590.296" stroke="#047857" stroke-opacity="0.3" stroke-width="4.66667" stroke-miterlimit="10" stroke-linecap="round" stroke-linejoin="round"/>
<path d="M1435.4 558.028V510.471" stroke="#047857" stroke-opacity="0.3" stroke-width="4.66667" stroke-miterlimit="10" stroke-linecap="round" stroke-linejoin="round"/>
<path d="M1504.16 492.519V526.547" stroke="#047857" stroke-opacity="0.3" stroke-width="4.66667" stroke-miterlimit="10" stroke-linecap="round" stroke-linejoin="round"/>
<path d="M1414.61 492.519V526.547" stroke="#047857" stroke-opacity="0.3" stroke-width="4.66667" stroke-miterlimit="10" stroke-linecap="round" stroke-linejoin="round"/>
<path d="M1527.48 755.281L1492.51 723.056" stroke="#047857" stroke-opacity="0.3" stroke-width="4.66667" stroke-miterlimit="10" stroke-linecap="round" stroke-linejoin="round"/>
<path d="M1521.88 720.705L1483.55 685.227" stroke="#047857" stroke-opacity="0.3" stroke-width="4.66667" stroke-miterlimit="10" stroke-linecap="round" stroke-linejoin="round"/>
<path d="M1522.21 690.962L1557.12 723.266" stroke="#047857" stroke-opacity="0.3" stroke-width="4.66667" stroke-miterlimit="10" stroke-linecap="round" stroke-linejoin="round"/>
<path d="M1523.58 785.927L1498.61 762.808" stroke="#047857" stroke-opacity="0.3" stroke-width="4.66667" stroke-miterlimit="10" stroke-linecap="round" stroke-linejoin="round"/>
<path d="M890.491 524.4C890.491 524.4 889.921 576.216 873.036 605.278" stroke="#047857" stroke-opacity="0.3" stroke-width="4.66667" stroke-miterlimit="10" stroke-linecap="round" stroke-linejoin="round"/>
<path d="M844.825 649.164C844.825 649.164 870.073 679.748 850.022 701.365C850.022 701.365 825.335 686.438 844.825 649.164Z" stroke="#047857" stroke-opacity="0.3" stroke-width="4.66667" stroke-miterlimit="10" stroke-linecap="round" stroke-linejoin="round"/>
<path d="M870.314 621.12C870.314 621.12 895.56 651.704 875.509 673.312C875.509 673.312 850.826 658.395 870.314 621.12Z" stroke="#047857" stroke-opacity="0.3" stroke-width="4.66667" stroke-miterlimit="10" stroke-linecap="round" stroke-linejoin="round"/>
<path d="M822.362 679.585C822.362 679.585 842.666 715.616 816.96 731.767C816.96 731.767 796.449 709.009 822.362 679.585Z" stroke="#047857" stroke-opacity="0.3" stroke-width="4.66667" stroke-miterlimit="10" stroke-linecap="round" stroke-linejoin="round"/>
<path d="M834.803 643.738C834.803 643.738 799.144 626.372 782.835 650.935C782.835 650.935 803.131 671.43 834.803 643.738Z" stroke="#047857" stroke-opacity="0.3" stroke-width="4.66667" stroke-miterlimit="10" stroke-linecap="round" stroke-linejoin="round"/>
<path d="M861.108 612.908C861.108 612.908 825.448 595.544 809.14 620.105C809.14 620.105 829.444 640.598 861.108 612.908Z" stroke="#047857" stroke-opacity="0.3" stroke-width="4.66667" stroke-miterlimit="10" stroke-linecap="round" stroke-linejoin="round"/>
<path d="M812.283 673.236C812.283 673.236 772.431 662.175 762.928 691.008C762.928 691.008 789.941 705.454 812.283 673.236Z" stroke="#047857" stroke-opacity="0.3" stroke-width="4.66667" stroke-miterlimit="10" stroke-linecap="round" stroke-linejoin="round"/>
<path d="M795.006 705.965C795.006 705.965 805.418 728.141 765.749 749.506C765.749 749.506 765.242 706.351 795.006 705.965Z" stroke="#047857" stroke-opacity="0.3" stroke-width="4.66667" stroke-miterlimit="10" stroke-linecap="round" stroke-linejoin="round"/>
<path d="M765.749 749.506C765.749 749.506 765.242 706.351 795.006 705.965" stroke="#047857" stroke-opacity="0.3" stroke-width="4.66667" stroke-miterlimit="10" stroke-linecap="round" stroke-linejoin="round"/>
<path d="M808.47 741.251C808.47 741.251 797.114 752.4 788.003 760.716" stroke="#047857" stroke-opacity="0.3" stroke-width="4.66667" stroke-miterlimit="10" stroke-linecap="round" stroke-linejoin="round"/>
<path d="M890.491 524.4C890.491 524.4 888.918 576.216 905.801 605.278" stroke="#047857" stroke-opacity="0.3" stroke-width="4.66667" stroke-miterlimit="10" stroke-linecap="round" stroke-linejoin="round"/>
<path d="M934.007 649.164C934.007 649.164 908.762 679.748 928.812 701.365C928.812 701.365 953.5 686.438 934.007 649.164Z" stroke="#047857" stroke-opacity="0.3" stroke-width="4.66667" stroke-miterlimit="10" stroke-linecap="round" stroke-linejoin="round"/>
<path d="M908.516 621.12C908.516 621.12 883.273 651.704 903.323 673.312C903.323 673.312 928.007 658.395 908.516 621.12Z" stroke="#047857" stroke-opacity="0.3" stroke-width="4.66667" stroke-miterlimit="10" stroke-linecap="round" stroke-linejoin="round"/>
<path d="M956.473 679.585C956.473 679.585 936.168 715.616 961.874 731.767C961.874 731.767 982.384 709.009 956.473 679.585Z" stroke="#047857" stroke-opacity="0.3" stroke-width="4.66667" stroke-miterlimit="10" stroke-linecap="round" stroke-linejoin="round"/>
<path d="M944.036 643.738C944.036 643.738 979.689 626.372 995.998 650.935C995.998 650.935 975.701 671.43 944.036 643.738Z" stroke="#047857" stroke-opacity="0.3" stroke-width="4.66667" stroke-miterlimit="10" stroke-linecap="round" stroke-linejoin="round"/>
<path d="M917.727 612.908C917.727 612.908 953.384 595.544 969.689 620.105C969.689 620.105 949.393 640.598 917.727 612.908Z" stroke="#047857" stroke-opacity="0.3" stroke-width="4.66667" stroke-miterlimit="10" stroke-linecap="round" stroke-linejoin="round"/>
<path d="M966.55 673.236C966.55 673.236 1006.4 662.175 1015.91 691.008C1015.91 691.008 988.887 705.454 966.55 673.236Z" stroke="#047857" stroke-opacity="0.3" stroke-width="4.66667" stroke-miterlimit="10" stroke-linecap="round" stroke-linejoin="round"/>
<path d="M983.826 705.965C983.826 705.965 973.418 728.141 1013.08 749.506C1013.08 749.506 1013.59 706.351 983.826 705.965Z" stroke="#047857" stroke-opacity="0.3" stroke-width="4.66667" stroke-miterlimit="10" stroke-linecap="round" stroke-linejoin="round"/>
<path d="M1013.08 749.506C1013.08 749.506 1013.59 706.351 983.826 705.965" stroke="#047857" stroke-opacity="0.3" stroke-width="4.66667" stroke-miterlimit="10" stroke-linecap="round" stroke-linejoin="round"/>
<path d="M970.363 741.251C970.363 741.251 981.722 752.4 990.825 760.716" stroke="#047857" stroke-opacity="0.3" stroke-width="4.66667" stroke-miterlimit="10" stroke-linecap="round" stroke-linejoin="round"/>
<path d="M772.796 658.236C772.796 658.236 770.641 659.825 762.928 668.66" stroke="#047857" stroke-opacity="0.3" stroke-width="4.66667" stroke-miterlimit="10" stroke-linecap="round" stroke-linejoin="round"/>
<path d="M1007.73 658.236C1007.73 658.236 1009.89 659.825 1017.6 668.66" stroke="#047857" stroke-opacity="0.3" stroke-width="4.66667" stroke-miterlimit="10" stroke-linecap="round" stroke-linejoin="round"/>
<path d="M1545.69 282.95C1545.69 282.95 1530.98 230.01 1504.74 205.9" stroke="#047857" stroke-opacity="0.3" stroke-width="4.66667" stroke-miterlimit="10" stroke-linecap="round" stroke-linejoin="round"/>
<path d="M1462.38 170.353C1462.38 170.353 1478.3 131.449 1451.2 115.879C1451.2 115.879 1430.91 138.758 1462.38 170.353Z" stroke="#047857" stroke-opacity="0.3" stroke-width="4.66667" stroke-miterlimit="10" stroke-linecap="round" stroke-linejoin="round"/>
<path d="M1497.01 190.72C1497.01 190.72 1512.93 151.816 1485.84 136.252C1485.84 136.252 1465.54 159.125 1497.01 190.72Z" stroke="#047857" stroke-opacity="0.3" stroke-width="4.66667" stroke-miterlimit="10" stroke-linecap="round" stroke-linejoin="round"/>
<path d="M1430.06 146.629C1430.06 146.629 1439.27 103.77 1408.17 95.5092C1408.17 95.5092 1394.57 125 1430.06 146.629Z" stroke="#047857" stroke-opacity="0.3" stroke-width="4.66667" stroke-miterlimit="10" stroke-linecap="round" stroke-linejoin="round"/>
<path d="M1453.93 179.001C1453.93 179.001 1423.31 207.802 1399.07 188.074C1399.07 188.074 1413.16 160.939 1453.93 179.001Z" stroke="#047857" stroke-opacity="0.3" stroke-width="4.66667" stroke-miterlimit="10" stroke-linecap="round" stroke-linejoin="round"/>
<path d="M1490.27 201.929C1490.27 201.929 1459.64 230.73 1435.4 211C1435.4 211 1449.5 183.863 1490.27 201.929Z" stroke="#047857" stroke-opacity="0.3" stroke-width="4.66667" stroke-miterlimit="10" stroke-linecap="round" stroke-linejoin="round"/>
<path d="M1421.85 156.227C1421.85 156.227 1385 179.967 1366.3 153.774C1366.3 153.774 1389.11 130.649 1421.85 156.227Z" stroke="#047857" stroke-opacity="0.3" stroke-width="4.66667" stroke-miterlimit="10" stroke-linecap="round" stroke-linejoin="round"/>
<path d="M1394.07 128.537C1394.07 128.537 1397.63 102.814 1350.74 93.6708C1350.74 93.6708 1363.82 137.516 1394.07 128.537Z" stroke="#047857" stroke-opacity="0.3" stroke-width="4.66667" stroke-miterlimit="10" stroke-linecap="round" stroke-linejoin="round"/>
<path d="M1350.74 93.6708C1350.74 93.6708 1363.82 137.516 1394.07 128.537" stroke="#047857" stroke-opacity="0.3" stroke-width="4.66667" stroke-miterlimit="10" stroke-linecap="round" stroke-linejoin="round"/>
<path d="M1396.59 88.5815C1396.59 88.5815 1381.58 80.8685 1369.75 75.3206" stroke="#047857" stroke-opacity="0.3" stroke-width="4.66667" stroke-miterlimit="10" stroke-linecap="round" stroke-linejoin="round"/>
<path d="M1384.89 184.375C1384.89 184.375 1382.21 183.443 1371.62 176.927" stroke="#047857" stroke-opacity="0.3" stroke-width="4.66667" stroke-miterlimit="10" stroke-linecap="round" stroke-linejoin="round"/>
<path d="M1451.27 835.385C1451.27 835.385 1393.63 793.982 1376.07 751.44" stroke="#047857" stroke-opacity="0.3" stroke-width="4.66667" stroke-miterlimit="10" stroke-linecap="round" stroke-linejoin="round"/>
<path d="M1351.82 684.251C1351.82 684.251 1297.56 686.252 1290.74 646.465C1290.74 646.465 1327.51 632.043 1351.82 684.251Z" stroke="#047857" stroke-opacity="0.3" stroke-width="4.66667" stroke-miterlimit="10" stroke-linecap="round" stroke-linejoin="round"/>
<path d="M1361.11 735.305C1361.11 735.305 1306.85 737.301 1300.03 697.52C1300.03 697.52 1336.8 683.094 1361.11 735.305Z" stroke="#047857" stroke-opacity="0.3" stroke-width="4.66667" stroke-miterlimit="10" stroke-linecap="round" stroke-linejoin="round"/>
<path d="M1337.44 634.511C1337.44 634.511 1281.36 626.609 1285.19 585.215C1285.19 585.215 1327 581.859 1337.44 634.511Z" stroke="#047857" stroke-opacity="0.3" stroke-width="4.66667" stroke-miterlimit="10" stroke-linecap="round" stroke-linejoin="round"/>
<path d="M1366.06 677.867C1366.06 677.867 1414.62 653.547 1401.48 615.377C1401.48 615.377 1362.31 620.389 1366.06 677.867Z" stroke="#047857" stroke-opacity="0.3" stroke-width="4.66667" stroke-miterlimit="10" stroke-linecap="round" stroke-linejoin="round"/>
<path d="M1377.7 732.12C1377.7 732.12 1426.25 707.802 1413.11 669.634C1413.11 669.634 1373.93 674.649 1377.7 732.12Z" stroke="#047857" stroke-opacity="0.3" stroke-width="4.66667" stroke-miterlimit="10" stroke-linecap="round" stroke-linejoin="round"/>
<path d="M1352.72 628.837C1352.72 628.837 1397.91 594.708 1374.47 560.381C1374.47 560.381 1336.28 577.741 1352.72 628.837Z" stroke="#047857" stroke-opacity="0.3" stroke-width="4.66667" stroke-miterlimit="10" stroke-linecap="round" stroke-linejoin="round"/>
<path d="M1331.51 582.818C1331.51 582.818 1298.74 575.688 1308.52 514.773C1308.52 514.773 1355.86 550.132 1331.51 582.818Z" stroke="#047857" stroke-opacity="0.3" stroke-width="4.66667" stroke-miterlimit="10" stroke-linecap="round" stroke-linejoin="round"/>
<path d="M1308.52 514.773C1308.52 514.773 1355.86 550.132 1331.51 582.818" stroke="#047857" stroke-opacity="0.3" stroke-width="4.66667" stroke-miterlimit="10" stroke-linecap="round" stroke-linejoin="round"/>
<path d="M1281.95 568.099C1281.95 568.099 1279.27 546.467 1277.81 529.651" stroke="#047857" stroke-opacity="0.3" stroke-width="4.66667" stroke-miterlimit="10" stroke-linecap="round" stroke-linejoin="round"/>
<path d="M1403.3 596.542C1403.3 596.542 1403.37 592.873 1400.18 577.135" stroke="#047857" stroke-opacity="0.3" stroke-width="4.66667" stroke-miterlimit="10" stroke-linecap="round" stroke-linejoin="round"/>
<path d="M623.637 821.754C623.637 821.754 608.925 768.812 582.688 744.703" stroke="#047857" stroke-opacity="0.3" stroke-width="4.66667" stroke-miterlimit="10" stroke-linecap="round" stroke-linejoin="round"/>
<path d="M540.322 709.157C540.322 709.157 556.249 670.253 529.153 654.681C529.153 654.681 508.861 677.56 540.322 709.157Z" stroke="#047857" stroke-opacity="0.3" stroke-width="4.66667" stroke-miterlimit="10" stroke-linecap="round" stroke-linejoin="round"/>
<path d="M574.952 729.525C574.952 729.525 590.878 690.621 563.779 675.056C563.779 675.056 543.487 697.927 574.952 729.525Z" stroke="#047857" stroke-opacity="0.3" stroke-width="4.66667" stroke-miterlimit="10" stroke-linecap="round" stroke-linejoin="round"/>
<path d="M508.005 685.432C508.005 685.432 517.219 642.573 486.115 634.314C486.115 634.314 472.52 663.805 508.005 685.432Z" stroke="#047857" stroke-opacity="0.3" stroke-width="4.66667" stroke-miterlimit="10" stroke-linecap="round" stroke-linejoin="round"/>
<path d="M531.882 717.804C531.882 717.804 501.255 746.607 477.014 726.877C477.014 726.877 491.109 699.744 531.882 717.804Z" stroke="#047857" stroke-opacity="0.3" stroke-width="4.66667" stroke-miterlimit="10" stroke-linecap="round" stroke-linejoin="round"/>
<path d="M568.211 740.732C568.211 740.732 537.586 769.532 513.347 749.805C513.347 749.805 527.444 722.668 568.211 740.732Z" stroke="#047857" stroke-opacity="0.3" stroke-width="4.66667" stroke-miterlimit="10" stroke-linecap="round" stroke-linejoin="round"/>
<path d="M499.804 695.032C499.804 695.032 462.946 718.771 444.251 692.579C444.251 692.579 467.055 669.452 499.804 695.032Z" stroke="#047857" stroke-opacity="0.3" stroke-width="4.66667" stroke-miterlimit="10" stroke-linecap="round" stroke-linejoin="round"/>
<path d="M472.012 667.339C472.012 667.339 475.572 641.617 428.695 632.473C428.695 632.473 441.761 676.32 472.012 667.339Z" stroke="#047857" stroke-opacity="0.3" stroke-width="4.66667" stroke-miterlimit="10" stroke-linecap="round" stroke-linejoin="round"/>
<path d="M428.695 632.473C428.695 632.473 441.761 676.32 472.012 667.339" stroke="#047857" stroke-opacity="0.3" stroke-width="4.66667" stroke-miterlimit="10" stroke-linecap="round" stroke-linejoin="round"/>
<path d="M474.539 627.386C474.539 627.386 459.529 619.673 447.698 614.125" stroke="#047857" stroke-opacity="0.3" stroke-width="4.66667" stroke-miterlimit="10" stroke-linecap="round" stroke-linejoin="round"/>
<path d="M462.842 723.179C462.842 723.179 460.156 722.248 449.569 715.732" stroke="#047857" stroke-opacity="0.3" stroke-width="4.66667" stroke-miterlimit="10" stroke-linecap="round" stroke-linejoin="round"/>
<path d="M255.388 269.729C255.388 269.729 262.494 218.309 248.789 187.563" stroke="#047857" stroke-opacity="0.3" stroke-width="4.66667" stroke-miterlimit="10" stroke-linecap="round" stroke-linejoin="round"/>
<path d="M225.388 140.85C225.388 140.85 253.793 113.094 236.137 89.4297C236.137 89.4297 209.96 101.658 225.388 140.85Z" stroke="#047857" stroke-opacity="0.3" stroke-width="4.66667" stroke-miterlimit="10" stroke-linecap="round" stroke-linejoin="round"/>
<path d="M247.774 171.503C247.774 171.503 276.175 143.74 258.519 120.085C258.519 120.085 232.348 132.305 247.774 171.503Z" stroke="#047857" stroke-opacity="0.3" stroke-width="4.66667" stroke-miterlimit="10" stroke-linecap="round" stroke-linejoin="round"/>
<path d="M206.269 108.161C206.269 108.161 230.335 74.4541 206.463 55.6251C206.463 55.6251 183.615 76.0978 206.269 108.161Z" stroke="#047857" stroke-opacity="0.3" stroke-width="4.66667" stroke-miterlimit="10" stroke-linecap="round" stroke-linejoin="round"/>
<path d="M214.826 145.186C214.826 145.186 177.468 158.664 163.854 132.467C163.854 132.467 186.251 114.229 214.826 145.186Z" stroke="#047857" stroke-opacity="0.3" stroke-width="4.66667" stroke-miterlimit="10" stroke-linecap="round" stroke-linejoin="round"/>
<path d="M237.722 178.691C237.722 178.691 200.368 192.175 186.754 165.974C186.754 165.974 209.154 147.735 237.722 178.691Z" stroke="#047857" stroke-opacity="0.3" stroke-width="4.66667" stroke-miterlimit="10" stroke-linecap="round" stroke-linejoin="round"/>
<path d="M195.557 113.405C195.557 113.405 154.695 120.164 148.312 90.4361C148.312 90.4361 176.759 78.9427 195.557 113.405Z" stroke="#047857" stroke-opacity="0.3" stroke-width="4.66667" stroke-miterlimit="10" stroke-linecap="round" stroke-linejoin="round"/>
<path d="M181.852 78.9712C181.852 78.9712 194.586 58.0074 157.37 32.4941C157.37 32.4941 152.254 75.4079 181.852 78.9712Z" stroke="#047857" stroke-opacity="0.3" stroke-width="4.66667" stroke-miterlimit="10" stroke-linecap="round" stroke-linejoin="round"/>
<path d="M157.37 32.4941C157.37 32.4941 152.254 75.4079 181.852 78.9712" stroke="#047857" stroke-opacity="0.3" stroke-width="4.66667" stroke-miterlimit="10" stroke-linecap="round" stroke-linejoin="round"/>
<path d="M199.024 45.2781C199.024 45.2781 188.908 32.9627 180.73 23.7095" stroke="#047857" stroke-opacity="0.3" stroke-width="4.66667" stroke-miterlimit="10" stroke-linecap="round" stroke-linejoin="round"/>
<path d="M152.951 123.943C152.951 123.943 150.972 122.13 144.237 112.51" stroke="#047857" stroke-opacity="0.3" stroke-width="4.66667" stroke-miterlimit="10" stroke-linecap="round" stroke-linejoin="round"/>
<path d="M674.617 292.4C674.617 292.4 710.735 255.117 743.393 246.96" stroke="#047857" stroke-opacity="0.3" stroke-width="4.66667" stroke-miterlimit="10" stroke-linecap="round" stroke-linejoin="round"/>
<path d="M794.602 236.607C794.602 236.607 798.959 197.128 828.476 196.45C828.476 196.45 834.978 224.602 794.602 236.607Z" stroke="#047857" stroke-opacity="0.3" stroke-width="4.66667" stroke-miterlimit="10" stroke-linecap="round" stroke-linejoin="round"/>
<path d="M756.67 237.865C756.67 237.865 761.029 198.39 790.544 197.715C790.544 197.715 797.048 225.856 756.67 237.865Z" stroke="#047857" stroke-opacity="0.3" stroke-width="4.66667" stroke-miterlimit="10" stroke-linecap="round" stroke-linejoin="round"/>
<path d="M832.131 231.519C832.131 231.519 843.847 191.795 873.384 198.987C873.384 198.987 871.343 229.6 832.131 231.519Z" stroke="#047857" stroke-opacity="0.3" stroke-width="4.66667" stroke-miterlimit="10" stroke-linecap="round" stroke-linejoin="round"/>
<path d="M797.699 247.595C797.699 247.595 810.103 285.32 839.127 279.898C839.127 279.898 839.689 251.022 797.699 247.595Z" stroke="#047857" stroke-opacity="0.3" stroke-width="4.66667" stroke-miterlimit="10" stroke-linecap="round" stroke-linejoin="round"/>
<path d="M757.2 250.21C757.2 250.21 769.602 287.935 798.626 282.515C798.626 282.515 799.184 253.63 757.2 250.21Z" stroke="#047857" stroke-opacity="0.3" stroke-width="4.66667" stroke-miterlimit="10" stroke-linecap="round" stroke-linejoin="round"/>
<path d="M834.604 243.187C834.604 243.187 854.46 279.53 881.804 266.241C881.804 266.241 873.326 236.755 834.604 243.187Z" stroke="#047857" stroke-opacity="0.3" stroke-width="4.66667" stroke-miterlimit="10" stroke-linecap="round" stroke-linejoin="round"/>
<path d="M870.166 232.759C870.166 232.759 878.831 209.811 921.856 223.402C921.856 223.402 891.211 253.875 870.166 232.759Z" stroke="#047857" stroke-opacity="0.3" stroke-width="4.66667" stroke-miterlimit="10" stroke-linecap="round" stroke-linejoin="round"/>
<path d="M921.856 223.402C921.856 223.402 891.211 253.875 870.166 232.759" stroke="#047857" stroke-opacity="0.3" stroke-width="4.66667" stroke-miterlimit="10" stroke-linecap="round" stroke-linejoin="round"/>
<path d="M886.12 198.474C886.12 198.474 902.055 198.849 914.381 199.59" stroke="#047857" stroke-opacity="0.3" stroke-width="4.66667" stroke-miterlimit="10" stroke-linecap="round" stroke-linejoin="round"/>
<path d="M852.559 283.232C852.559 283.232 855.205 283.68 866.934 283.053" stroke="#047857" stroke-opacity="0.3" stroke-width="4.66667" stroke-miterlimit="10" stroke-linecap="round" stroke-linejoin="round"/>
<path d="M937.262 1.61145C937.262 1.61145 949.77 -3.66857 953.392 -8.74972C961.846 -20.6166 952.926 -29.3096 952.686 -43.4431C952.686 -43.4431 954.303 -35.7828 942.763 -23.4128C931.229 -11.0407 937.262 1.61145 937.262 1.61145Z" stroke="#047857" stroke-opacity="0.3" stroke-width="4.66667" stroke-miterlimit="10" stroke-linecap="round" stroke-linejoin="round"/>
<path d="M924.255 -7.15449C924.255 -7.15449 914.458 2.24072 908.354 3.55564C894.113 6.62787 888.271 -1.84205 875.383 -7.64763C875.383 -7.64763 883.171 -6.31042 899.099 -12.0044C915.028 -17.7024 924.255 -7.15449 924.255 -7.15449Z" stroke="#047857" stroke-opacity="0.3" stroke-width="4.66667" stroke-miterlimit="10" stroke-linecap="round" stroke-linejoin="round"/>
<path d="M958.869 39.9373C958.869 39.9373 953.863 22.6808 937.262 1.61149" stroke="#047857" stroke-opacity="0.3" stroke-width="4.66667" stroke-miterlimit="10" stroke-linecap="round" stroke-linejoin="round"/>
<path d="M23.4582 491.766C23.4582 491.766 9.88785 491.413 4.48982 494.548C-8.10716 501.863 -3.56918 513.468 -9.18756 526.441C-9.18756 526.441 -7.49522 518.795 8.1202 512.287C23.7341 505.776 23.4582 491.766 23.4582 491.766Z" stroke="#047857" stroke-opacity="0.3" stroke-width="4.66667" stroke-miterlimit="10" stroke-linecap="round" stroke-linejoin="round"/>
<path d="M31.6884 505.118C31.6884 505.118 44.4898 500.603 50.5933 501.924C64.8311 505.002 66.6582 515.128 75.9997 525.735C75.9997 525.735 69.4587 521.303 52.6018 519.917C35.7405 518.533 31.6884 505.118 31.6884 505.118Z" stroke="#047857" stroke-opacity="0.3" stroke-width="4.66667" stroke-miterlimit="10" stroke-linecap="round" stroke-linejoin="round"/>
<path d="M33.5845 535.128C33.5845 535.128 46.3843 530.609 52.4854 531.934C66.7311 535.008 68.5502 545.134 77.8942 555.745C77.8942 555.745 71.3562 551.309 54.4988 549.927C37.6364 548.543 33.5845 535.128 33.5845 535.128Z" stroke="#047857" stroke-opacity="0.3" stroke-width="4.66667" stroke-miterlimit="10" stroke-linecap="round" stroke-linejoin="round"/>
<path d="M42.1571 564.373C42.1571 564.373 54.9586 559.85 61.0604 561.171C75.3023 564.257 77.1277 574.377 86.4644 584.986C86.4644 584.986 79.9289 580.552 63.0738 579.168C46.209 577.784 42.1571 564.373 42.1571 564.373Z" stroke="#047857" stroke-opacity="0.3" stroke-width="4.66667" stroke-miterlimit="10" stroke-linecap="round" stroke-linejoin="round"/>
<path d="M53.0483 595.797C53.0483 595.797 65.8536 591.276 71.9532 592.599C86.1949 595.68 88.0203 605.805 97.3618 616.414C97.3618 616.414 90.8225 611.976 73.9626 610.592C57.1051 609.21 53.0483 595.797 53.0483 595.797Z" stroke="#047857" stroke-opacity="0.3" stroke-width="4.66667" stroke-miterlimit="10" stroke-linecap="round" stroke-linejoin="round"/>
<path d="M67.5144 626.814C67.5144 626.814 80.3198 622.297 86.421 623.616C100.663 626.7 102.486 636.822 111.828 647.437C111.828 647.437 105.291 642.993 88.4327 641.613C71.5712 640.231 67.5144 626.814 67.5144 626.814Z" stroke="#047857" stroke-opacity="0.3" stroke-width="4.66667" stroke-miterlimit="10" stroke-linecap="round" stroke-linejoin="round"/>
<path d="M25.6657 520.035C25.6657 520.035 12.3055 522.442 7.65253 526.603C-3.20297 536.325 3.59808 546.768 0.727051 560.605C0.727051 560.605 0.831676 552.78 14.8023 543.237C28.7731 533.702 25.6657 520.035 25.6657 520.035Z" stroke="#047857" stroke-opacity="0.3" stroke-width="4.66667" stroke-miterlimit="10" stroke-linecap="round" stroke-linejoin="round"/>
<path d="M30.3979 552.198C30.3979 552.198 17.6836 556.958 13.8527 561.887C4.91389 573.397 13.4802 582.445 13.1338 596.579C13.1338 596.579 11.8362 588.862 23.8689 576.976C35.9015 565.085 30.3979 552.198 30.3979 552.198Z" stroke="#047857" stroke-opacity="0.3" stroke-width="4.66667" stroke-miterlimit="10" stroke-linecap="round" stroke-linejoin="round"/>
<path d="M40.9601 579.854C40.9601 579.854 28.8443 585.976 25.5785 591.297C17.9596 603.717 27.4587 611.777 28.658 625.864C28.658 625.864 26.5243 618.33 37.1855 605.195C47.8468 592.064 40.9601 579.854 40.9601 579.854Z" stroke="#047857" stroke-opacity="0.3" stroke-width="4.66667" stroke-miterlimit="10" stroke-linecap="round" stroke-linejoin="round"/>
<path d="M51.3773 615.793C51.3773 615.793 41.642 625.249 40.1081 631.305C36.5371 645.426 48.007 650.286 53.3599 663.376C53.3599 663.376 49.0786 656.824 55.3351 641.11C61.5907 625.395 51.3773 615.793 51.3773 615.793Z" stroke="#047857" stroke-opacity="0.3" stroke-width="4.66667" stroke-miterlimit="10" stroke-linecap="round" stroke-linejoin="round"/>
<path d="M67.5144 626.814C74.1489 638.967 94.774 672.337 98.3568 677.169" stroke="#047857" stroke-opacity="0.3" stroke-width="4.66667" stroke-miterlimit="10" stroke-linecap="round" stroke-linejoin="round"/>
<path d="M19.5923 447.939C19.5923 447.939 17.0312 465.723 23.4581 491.766" stroke="#047857" stroke-opacity="0.3" stroke-width="4.66667" stroke-miterlimit="10" stroke-linecap="round" stroke-linejoin="round"/>
<path d="M45.082 -18.0293C45.082 -18.0293 47.5193 1.28485 60.2272 13.4885C72.9345 25.6943 80.3974 33.6569 85.3793 38.4783C85.3793 38.4783 93.4501 29.4584 115.667 12.0437C129.932 0.866812 128.757 -18.0293 128.757 -18.0293" stroke="#047857" stroke-opacity="0.3" stroke-width="4.66667" stroke-miterlimit="10" stroke-linecap="round" stroke-linejoin="round"/>
<path d="M388.926 226.231C404.707 226.168 435.008 218.055 422.42 178.731C415.446 156.938 395.058 140.148 395.058 140.148C395.058 140.148 369.957 153.579 361.045 180.133C357.283 191.343 356.242 226.351 388.926 226.231Z" stroke="#047857" stroke-opacity="0.3" stroke-width="4.66667" stroke-miterlimit="10" stroke-linecap="round" stroke-linejoin="round"/>
<path d="M412.615 159.604C412.615 159.604 444.638 127.995 392.307 86.5828C392.307 86.5828 339.738 119.251 372.488 159.604" stroke="#047857" stroke-opacity="0.3" stroke-width="4.66667" stroke-miterlimit="10" stroke-linecap="round" stroke-linejoin="round"/>
<path d="M396.028 226.231C396.028 226.231 419.876 250.565 447.485 228.4C471.562 209.062 447.901 186.562 463.798 171.503C463.798 171.503 437.256 161.118 421.032 174.89" stroke="#047857" stroke-opacity="0.3" stroke-width="4.66667" stroke-miterlimit="10" stroke-linecap="round" stroke-linejoin="round"/>
<path d="M386.128 226.231C386.128 226.231 362.285 250.565 334.673 228.4C310.597 209.062 334.253 186.562 318.356 171.503C318.356 171.503 344.898 161.118 361.124 174.89" stroke="#047857" stroke-opacity="0.3" stroke-width="4.66667" stroke-miterlimit="10" stroke-linecap="round" stroke-linejoin="round"/>
<path d="M451.86 168.474C451.86 168.474 463.798 157.733 456.787 137.295C451.059 120.611 449.969 107.601 453.865 96.4082C453.865 96.4082 426.142 100.28 414.45 110.034" stroke="#047857" stroke-opacity="0.3" stroke-width="4.66667" stroke-miterlimit="10" stroke-linecap="round" stroke-linejoin="round"/>
<path d="M329.117 168.474C329.117 168.474 317.179 157.733 324.194 137.295C329.917 120.611 331.01 107.601 327.11 96.4082C327.11 96.4082 354.833 100.28 366.526 110.034" stroke="#047857" stroke-opacity="0.3" stroke-width="4.66667" stroke-miterlimit="10" stroke-linecap="round" stroke-linejoin="round"/>
<path d="M432.325 101.357C432.325 101.357 429.888 82.0454 417.177 69.8397C404.474 57.634 397.013 49.6714 392.025 44.8499C392.025 44.8499 383.957 53.8698 361.739 71.2845C347.473 82.4634 348.648 101.357 348.648 101.357" stroke="#047857" stroke-opacity="0.3" stroke-width="4.66667" stroke-miterlimit="10" stroke-linecap="round" stroke-linejoin="round"/>
<path d="M388.926 226.231V283.938" stroke="#047857" stroke-opacity="0.3" stroke-width="4.66667" stroke-miterlimit="10" stroke-linecap="round" stroke-linejoin="round"/>
<path d="M403.119 262.67C403.119 262.67 418.981 292.002 450.909 290.537C482.836 289.07 477.99 240.665 477.99 240.665C477.99 240.665 469.583 260.47 450.909 260.47C432.238 260.47 424.608 243.599 403.119 262.67Z" stroke="#047857" stroke-opacity="0.3" stroke-width="4.66667" stroke-miterlimit="10" stroke-linecap="round" stroke-linejoin="round"/>
<path d="M375.899 262.67C375.899 262.67 360.038 292.002 328.105 290.537C296.181 289.07 301.029 240.665 301.029 240.665C301.029 240.665 309.434 260.47 328.105 260.47C346.782 260.47 354.413 243.599 375.899 262.67Z" stroke="#047857" stroke-opacity="0.3" stroke-width="4.66667" stroke-miterlimit="10" stroke-linecap="round" stroke-linejoin="round"/>
<path d="M314.162 755.734C331.826 755.663 365.749 746.582 351.66 702.558C343.851 678.159 321.027 659.364 321.027 659.364C321.027 659.364 292.932 674.403 282.953 704.127C278.738 716.675 277.573 755.868 314.162 755.734Z" stroke="#047857" stroke-opacity="0.3" stroke-width="4.66667" stroke-miterlimit="10" stroke-linecap="round" stroke-linejoin="round"/>
<path d="M340.682 681.148C340.682 681.148 376.53 645.759 317.948 599.401C317.948 599.401 259.097 635.974 295.757 681.148" stroke="#047857" stroke-opacity="0.3" stroke-width="4.66667" stroke-miterlimit="10" stroke-linecap="round" stroke-linejoin="round"/>
<path d="M322.112 755.734C322.112 755.734 348.811 782.976 379.716 758.159C406.67 736.515 380.184 711.328 397.979 694.468C397.979 694.468 368.267 682.845 350.105 698.256" stroke="#047857" stroke-opacity="0.3" stroke-width="4.66667" stroke-miterlimit="10" stroke-linecap="round" stroke-linejoin="round"/>
<path d="M311.027 755.734C311.027 755.734 284.339 782.976 253.43 758.159C226.476 736.515 252.957 711.328 235.163 694.468C235.163 694.468 264.874 682.845 283.04 698.256" stroke="#047857" stroke-opacity="0.3" stroke-width="4.66667" stroke-miterlimit="10" stroke-linecap="round" stroke-linejoin="round"/>
<path d="M384.614 691.075C384.614 691.075 397.979 679.056 390.128 656.175C383.715 637.496 382.498 622.93 386.858 610.4C386.858 610.4 355.826 614.734 342.733 625.657" stroke="#047857" stroke-opacity="0.3" stroke-width="4.66667" stroke-miterlimit="10" stroke-linecap="round" stroke-linejoin="round"/>
<path d="M247.206 691.075C247.206 691.075 233.842 679.056 241.697 656.175C248.107 637.496 249.327 622.93 244.964 610.4C244.964 610.4 276.001 614.734 289.083 625.657" stroke="#047857" stroke-opacity="0.3" stroke-width="4.66667" stroke-miterlimit="10" stroke-linecap="round" stroke-linejoin="round"/>
<path d="M362.745 615.939C362.745 615.939 360.018 594.32 345.789 580.658C331.566 566.997 323.21 558.083 317.634 552.685C317.634 552.685 308.598 562.78 283.728 582.275C267.76 594.787 269.073 615.939 269.073 615.939" stroke="#047857" stroke-opacity="0.3" stroke-width="4.66667" stroke-miterlimit="10" stroke-linecap="round" stroke-linejoin="round"/>
<path d="M314.162 755.734V820.336" stroke="#047857" stroke-opacity="0.3" stroke-width="4.66667" stroke-miterlimit="10" stroke-linecap="round" stroke-linejoin="round"/>
<path d="M1143.95 706.45C1159.73 706.385 1190.03 698.272 1177.45 658.949C1170.47 637.155 1150.08 620.367 1150.08 620.367C1150.08 620.367 1124.98 633.798 1116.07 660.353C1112.31 671.56 1111.26 706.568 1143.95 706.45Z" stroke="#047857" stroke-opacity="0.3" stroke-width="4.66667" stroke-miterlimit="10" stroke-linecap="round" stroke-linejoin="round"/>
<path d="M1167.64 639.823C1167.64 639.823 1199.66 608.21 1147.33 566.798C1147.33 566.798 1094.76 599.468 1127.51 639.823" stroke="#047857" stroke-opacity="0.3" stroke-width="4.66667" stroke-miterlimit="10" stroke-linecap="round" stroke-linejoin="round"/>
<path d="M1151.05 706.45C1151.05 706.45 1174.9 730.785 1202.51 708.617C1226.59 689.281 1202.93 666.781 1218.82 651.72C1218.82 651.72 1192.28 641.337 1176.06 655.109" stroke="#047857" stroke-opacity="0.3" stroke-width="4.66667" stroke-miterlimit="10" stroke-linecap="round" stroke-linejoin="round"/>
<path d="M1141.15 706.45C1141.15 706.45 1117.31 730.785 1089.69 708.617C1065.62 689.281 1089.27 666.781 1073.38 651.72C1073.38 651.72 1099.92 641.337 1116.15 655.109" stroke="#047857" stroke-opacity="0.3" stroke-width="4.66667" stroke-miterlimit="10" stroke-linecap="round" stroke-linejoin="round"/>
<path d="M1206.88 648.693C1206.88 648.693 1218.82 637.952 1211.81 617.512C1206.08 600.828 1204.99 587.821 1208.89 576.623C1208.89 576.623 1181.17 580.495 1169.47 590.254" stroke="#047857" stroke-opacity="0.3" stroke-width="4.66667" stroke-miterlimit="10" stroke-linecap="round" stroke-linejoin="round"/>
<path d="M1084.14 648.693C1084.14 648.693 1072.2 637.952 1079.22 617.512C1084.94 600.828 1086.03 587.821 1082.14 576.623C1082.14 576.623 1109.86 580.495 1121.55 590.254" stroke="#047857" stroke-opacity="0.3" stroke-width="4.66667" stroke-miterlimit="10" stroke-linecap="round" stroke-linejoin="round"/>
<path d="M1187.35 581.573C1187.35 581.573 1184.91 562.261 1172.2 550.057C1159.5 537.851 1152.03 529.889 1147.05 525.069C1147.05 525.069 1138.98 534.085 1116.76 551.5C1102.5 562.681 1103.67 581.573 1103.67 581.573" stroke="#047857" stroke-opacity="0.3" stroke-width="4.66667" stroke-miterlimit="10" stroke-linecap="round" stroke-linejoin="round"/>
<path d="M1143.95 706.45V764.155" stroke="#047857" stroke-opacity="0.3" stroke-width="4.66667" stroke-miterlimit="10" stroke-linecap="round" stroke-linejoin="round"/>
<path d="M1158.14 742.889C1158.14 742.889 1174.01 772.221 1205.93 770.754C1237.86 769.287 1233.01 720.884 1233.01 720.884C1233.01 720.884 1224.6 740.689 1205.93 740.689C1187.26 740.689 1179.63 723.817 1158.14 742.889Z" stroke="#047857" stroke-opacity="0.3" stroke-width="4.66667" stroke-miterlimit="10" stroke-linecap="round" stroke-linejoin="round"/>
<path d="M1130.92 742.889C1130.92 742.889 1115.06 772.221 1083.13 770.754C1051.2 769.287 1056.05 720.884 1056.05 720.884C1056.05 720.884 1064.46 740.689 1083.13 740.689C1101.8 740.689 1109.44 723.817 1130.92 742.889Z" stroke="#047857" stroke-opacity="0.3" stroke-width="4.66667" stroke-miterlimit="10" stroke-linecap="round" stroke-linejoin="round"/>
<path d="M739.631 108.072C739.631 108.072 732.161 126.329 701.67 122.895" stroke="#047857" stroke-opacity="0.3" stroke-width="4.66667" stroke-miterlimit="10" stroke-linecap="round" stroke-linejoin="round"/>
<path d="M712.149 -12.8893C712.149 -12.8893 738.831 11.8327 739.615 36.5464C740.4 61.2663 716.074 62.8389 714.503 62.8389C712.935 62.8389 689.396 64.4075 687.827 40.0813C686.859 25.1098 693.712 5.5502 712.149 -12.8893Z" stroke="#047857" stroke-opacity="0.3" stroke-width="4.66667" stroke-miterlimit="10" stroke-linecap="round" stroke-linejoin="round"/>
<path d="M725.047 60.3613C725.047 60.3613 755.877 75.0447 764.917 42.8127C766.713 36.4044 770.41 20.0226 774.335 14.5315C774.335 14.5315 768.608 14.1258 755.842 19.9273" stroke="#047857" stroke-opacity="0.3" stroke-width="4.66667" stroke-miterlimit="10" stroke-linecap="round" stroke-linejoin="round"/>
<path d="M696.289 60.3613C696.289 60.3613 665.461 75.0447 656.417 42.8127C654.623 36.4044 650.924 20.0226 647.005 14.5315C647.005 14.5315 680.404 17.1513 687.736 29.1054" stroke="#047857" stroke-opacity="0.3" stroke-width="4.66667" stroke-miterlimit="10" stroke-linecap="round" stroke-linejoin="round"/>
<path d="M755.842 19.9274C755.842 19.9274 771.873 14.7143 766.617 -9.7032C764.089 -21.4503 768.235 -34.0821 770.8 -35.7705C770.8 -35.7705 739.635 -38.2948 725.047 1.84706" stroke="#047857" stroke-opacity="0.3" stroke-width="4.66667" stroke-miterlimit="10" stroke-linecap="round" stroke-linejoin="round"/>
<path d="M685.429 -12.8892C685.429 -12.8892 674.426 -32.2722 644.877 -28.6156C644.877 -28.6156 649.463 -27.7025 651.194 -12.8892C654.619 16.3822 664.954 17.4171 664.954 17.4171" stroke="#047857" stroke-opacity="0.3" stroke-width="4.66667" stroke-miterlimit="10" stroke-linecap="round" stroke-linejoin="round"/>
<path d="M711.857 62.8308C711.857 62.8308 710.772 108.08 767.478 117.638C810.86 124.953 863.999 76.6883 875.696 152.244" stroke="#047857" stroke-opacity="0.3" stroke-width="4.66667" stroke-miterlimit="10" stroke-linecap="round" stroke-linejoin="round"/>
<path d="M687.736 118.612C694.106 113.123 707.022 80.0994 636.819 79.1214C636.819 79.1214 657.785 144.452 687.736 118.612Z" stroke="#047857" stroke-opacity="0.3" stroke-width="4.66667" stroke-miterlimit="10" stroke-linecap="round" stroke-linejoin="round"/>
<path d="M789.408 99.1151C789.408 99.1151 848.884 107.816 851.321 39.1154C851.321 39.1154 757.715 24.9819 789.408 99.1151Z" stroke="#047857" stroke-opacity="0.3" stroke-width="4.66667" stroke-miterlimit="10" stroke-linecap="round" stroke-linejoin="round"/>
<path d="M789.408 99.1151L813.086 71.8162" stroke="#047857" stroke-opacity="0.3" stroke-width="4.66667" stroke-miterlimit="10" stroke-linecap="round" stroke-linejoin="round"/>
<path d="M687.736 118.612L668.172 101.889" stroke="#047857" stroke-opacity="0.3" stroke-width="4.66667" stroke-miterlimit="10" stroke-linecap="round" stroke-linejoin="round"/>
<path d="M1207.57 71.4326C1207.57 71.4326 1199.15 81.0855 1181.13 72.5852" stroke="#047857" stroke-opacity="0.3" stroke-width="4.66667" stroke-miterlimit="10" stroke-linecap="round" stroke-linejoin="round"/>
<path d="M1216.03 -8.66442C1216.03 -8.66442 1227.24 12.1208 1222.55 27.4718C1217.85 42.8289 1202.57 38.6954 1201.61 38.3666C1200.64 38.0379 1185.85 34.0708 1189.98 18.7929C1192.53 9.39153 1200.83 -1.19488 1216.03 -8.66442Z" stroke="#047857" stroke-opacity="0.3" stroke-width="4.66667" stroke-miterlimit="10" stroke-linecap="round" stroke-linejoin="round"/>
<path d="M1208.61 39.0544C1208.61 39.0544 1224.48 54.5394 1236.79 36.6234C1239.23 33.0642 1244.94 23.7704 1248.5 21.2177C1248.5 21.2177 1245.06 19.7668 1236 20.6596" stroke="#047857" stroke-opacity="0.3" stroke-width="4.66667" stroke-miterlimit="10" stroke-linecap="round" stroke-linejoin="round"/>
<path d="M1190.93 33.0278C1190.93 33.0278 1168.91 35.5927 1170.11 13.8903C1170.35 9.57621 1171.51 -1.2659 1170.25 -5.46231C1170.25 -5.46231 1190.22 3.1456 1192.22 12.0275" stroke="#047857" stroke-opacity="0.3" stroke-width="4.66667" stroke-miterlimit="10" stroke-linecap="round" stroke-linejoin="round"/>
<path d="M1236 20.6599C1236 20.6599 1246.95 20.8141 1248.83 4.70617C1249.74 -3.04137 1254.94 -9.93864 1256.86 -10.4378C1256.86 -10.4378 1238.24 -18.5181 1220.87 3.093" stroke="#047857" stroke-opacity="0.3" stroke-width="4.66667" stroke-miterlimit="10" stroke-linecap="round" stroke-linejoin="round"/>
<path d="M1199.61 -14.261C1199.61 -14.261 1196.91 -28.4798 1177.98 -32.4245C1177.98 -32.4245 1180.61 -30.9047 1178.57 -21.4364C1174.54 -2.72907 1180.68 0.0712891 1180.68 0.0712891" stroke="#047857" stroke-opacity="0.3" stroke-width="4.66667" stroke-miterlimit="10" stroke-linecap="round" stroke-linejoin="round"/>
<path d="M1199.99 37.8085C1199.99 37.8085 1189.84 65.3895 1222.68 83.1452C1247.81 96.7307 1290.58 78.204 1281.93 127.088" stroke="#047857" stroke-opacity="0.3" stroke-width="4.66667" stroke-miterlimit="10" stroke-linecap="round" stroke-linejoin="round"/>
<path d="M1173.47 67.0332C1178.54 64.9959 1193.4 47.4066 1150.46 32.0962C1150.46 32.0962 1149.65 76.6395 1173.47 67.0332Z" stroke="#047857" stroke-opacity="0.3" stroke-width="4.66667" stroke-miterlimit="10" stroke-linecap="round" stroke-linejoin="round"/>
<path d="M1240.04 76.3556C1240.04 76.3556 1274.77 94.166 1290.66 52.4555C1290.66 52.4555 1236.09 24.1581 1240.04 76.3556Z" stroke="#047857" stroke-opacity="0.3" stroke-width="4.66667" stroke-miterlimit="10" stroke-linecap="round" stroke-linejoin="round"/>
<path d="M1240.04 76.3556L1260.31 64.5415" stroke="#047857" stroke-opacity="0.3" stroke-width="4.66667" stroke-miterlimit="10" stroke-linecap="round" stroke-linejoin="round"/>
<path d="M1173.47 67.0333L1164.95 52.6584" stroke="#047857" stroke-opacity="0.3" stroke-width="4.66667" stroke-miterlimit="10" stroke-linecap="round" stroke-linejoin="round"/>
<path d="M906.931 785.756C906.931 785.756 894.423 767.664 873.171 768.233C873.171 768.233 859.945 787.3 863.857 805.711" stroke="#047857" stroke-opacity="0.3" stroke-width="4.66667" stroke-miterlimit="10" stroke-linecap="round" stroke-linejoin="round"/>
<path d="M133.341 209.307C133.341 209.307 151.534 201.68 170.667 225.665" stroke="#047857" stroke-opacity="0.3" stroke-width="4.66667" stroke-miterlimit="10" stroke-linecap="round" stroke-linejoin="round"/>
<path d="M67.2433 314.273C67.2433 314.273 65.8577 277.925 82.7769 259.896C99.7028 241.858 118.015 257.95 119.125 259.06C120.234 260.17 137.99 275.701 121.897 294.017C111.994 305.283 93.3195 314.273 67.2433 314.273Z" stroke="#047857" stroke-opacity="0.3" stroke-width="4.66667" stroke-miterlimit="10" stroke-linecap="round" stroke-linejoin="round"/>
<path d="M109.918 253.356C109.918 253.356 98.5018 221.174 69.3175 237.574C63.5168 240.833 49.3188 249.8 42.6603 250.91C42.6603 250.91 46.4231 255.247 59.5535 260.174" stroke="#047857" stroke-opacity="0.3" stroke-width="4.66667" stroke-miterlimit="10" stroke-linecap="round" stroke-linejoin="round"/>
<path d="M130.253 273.692C130.253 273.692 162.435 285.107 146.038 314.293C142.777 320.094 133.809 334.291 132.695 340.944C132.695 340.944 110.932 315.478 114.2 301.84" stroke="#047857" stroke-opacity="0.3" stroke-width="4.66667" stroke-miterlimit="10" stroke-linecap="round" stroke-linejoin="round"/>
<path d="M59.5536 260.174C59.5536 260.174 44.5311 252.524 30.9806 273.506C24.461 283.601 12.5987 289.602 9.59296 288.983C9.59296 288.983 29.8431 312.801 68.5432 294.733" stroke="#047857" stroke-opacity="0.3" stroke-width="4.66667" stroke-miterlimit="10" stroke-linecap="round" stroke-linejoin="round"/>
<path d="M86.1378 333.165C86.1378 333.165 80.2111 354.65 103.691 372.961C103.691 372.961 101.093 369.074 110.346 357.373C128.62 334.256 122.043 326.215 122.043 326.215" stroke="#047857" stroke-opacity="0.3" stroke-width="4.66667" stroke-miterlimit="10" stroke-linecap="round" stroke-linejoin="round"/>
<path d="M47.5274 301.062C47.5274 301.062 21.4804 310.409 33.9911 352.113C33.9911 352.113 58.7593 356.5 82.6208 341.809" stroke="#047857" stroke-opacity="0.3" stroke-width="4.66667" stroke-miterlimit="10" stroke-linecap="round" stroke-linejoin="round"/>
<path d="M22.0156 297.574C22.0156 297.574 3.34602 305.437 -10.9235 327.288C-10.9235 327.288 0.847555 333.871 15.6688 337.633" stroke="#047857" stroke-opacity="0.3" stroke-width="4.66667" stroke-miterlimit="10" stroke-linecap="round" stroke-linejoin="round"/>
<path d="M90.6124 359.847C90.6124 359.847 87.4655 381.265 65.6054 395.54C65.6054 395.54 43.0528 372.988 54.9267 351.801" stroke="#047857" stroke-opacity="0.3" stroke-width="4.66667" stroke-miterlimit="10" stroke-linecap="round" stroke-linejoin="round"/>
<path d="M11.2591 339.051C11.2591 339.051 -1.8951 361.011 8.93265 383.27C8.93265 383.27 35.5082 388.122 53.1449 375.108" stroke="#047857" stroke-opacity="0.3" stroke-width="4.66667" stroke-miterlimit="10" stroke-linecap="round" stroke-linejoin="round"/>
<path d="M120.991 260.939C120.991 260.939 153.756 229.707 120.417 182.853C94.9126 147.005 23.211 143.557 68.3665 81.8608" stroke="#047857" stroke-opacity="0.3" stroke-width="4.66667" stroke-miterlimit="10" stroke-linecap="round" stroke-linejoin="round"/>
<path d="M177.492 238.55C169.106 237.927 136.62 252.148 185.569 302.477C185.569 302.477 216.942 241.454 177.492 238.55Z" stroke="#047857" stroke-opacity="0.3" stroke-width="4.66667" stroke-miterlimit="10" stroke-linecap="round" stroke-linejoin="round"/>
<path d="M91.8134 180.444C91.8134 180.444 55.9073 132.234 5.60748 179.088C5.60748 179.088 61.8007 255.271 91.8134 180.444Z" stroke="#047857" stroke-opacity="0.3" stroke-width="4.66667" stroke-miterlimit="10" stroke-linecap="round" stroke-linejoin="round"/>
<path d="M91.8134 180.444L55.7646 183.003" stroke="#047857" stroke-opacity="0.3" stroke-width="4.66667" stroke-miterlimit="10" stroke-linecap="round" stroke-linejoin="round"/>
<path d="M177.492 238.551L179.497 264.208" stroke="#047857" stroke-opacity="0.3" stroke-width="4.66667" stroke-miterlimit="10" stroke-linecap="round" stroke-linejoin="round"/>
<path d="M989.867 371.793C968.22 346.454 948.632 363.619 948.632 363.619" stroke="#047857" stroke-opacity="0.3" stroke-width="4.66667" stroke-miterlimit="10" stroke-linecap="round" stroke-linejoin="round"/>
<path d="M989.867 371.793C989.867 371.793 1041.43 348.27 1033.86 450.567C1033.86 450.567 942.027 408.095 989.867 371.793Z" stroke="#047857" stroke-opacity="0.3" stroke-width="4.66667" stroke-miterlimit="10" stroke-linecap="round" stroke-linejoin="round"/>
<path d="M1017.03 441.464C1017.03 441.464 1020.9 480.942 1064.92 491.845C1064.92 491.845 1059.72 436.212 1035.03 429.53" stroke="#047857" stroke-opacity="0.3" stroke-width="4.66667" stroke-miterlimit="10" stroke-linecap="round" stroke-linejoin="round"/>
<path d="M976.067 394.027C976.067 394.027 948.536 410.561 975.909 446.603C975.909 446.603 986.134 438.533 991.061 422.129" stroke="#047857" stroke-opacity="0.3" stroke-width="4.66667" stroke-miterlimit="10" stroke-linecap="round" stroke-linejoin="round"/>
<path d="M1009.21 370.508C1009.21 370.508 1035.47 361.472 1049.93 386.709C1049.93 386.709 1046.15 395.449 1030.28 395.449" stroke="#047857" stroke-opacity="0.3" stroke-width="4.66667" stroke-miterlimit="10" stroke-linecap="round" stroke-linejoin="round"/>
<path d="M991.06 424.075C991.06 424.075 976.067 459.99 1004.51 475.869C1004.51 475.869 1020.13 466.047 1017.03 441.464" stroke="#047857" stroke-opacity="0.3" stroke-width="4.66667" stroke-miterlimit="10" stroke-linecap="round" stroke-linejoin="round"/>
<path d="M1042.62 393.075C1042.62 393.075 1059.35 401.18 1066.08 416.661C1066.08 416.661 1064.9 431.689 1043.45 433.093" stroke="#047857" stroke-opacity="0.3" stroke-width="4.66667" stroke-miterlimit="10" stroke-linecap="round" stroke-linejoin="round"/>
<path d="M1009.21 471.561C1009.21 471.561 1017.34 487.825 1035.97 490.997L1064.92 491.845" stroke="#047857" stroke-opacity="0.3" stroke-width="4.66667" stroke-miterlimit="10" stroke-linecap="round" stroke-linejoin="round"/>
<path d="M1064.92 491.845L1074.33 466.048C1074.33 466.048 1077.16 444.946 1060.76 426.586" stroke="#047857" stroke-opacity="0.3" stroke-width="4.66667" stroke-miterlimit="10" stroke-linecap="round" stroke-linejoin="round"/>
<path d="M905.852 371.793C927.512 346.454 947.092 363.619 947.092 363.619" stroke="#047857" stroke-opacity="0.3" stroke-width="4.66667" stroke-miterlimit="10" stroke-linecap="round" stroke-linejoin="round"/>
<path d="M905.852 371.793C905.852 371.793 854.31 348.27 861.861 450.567C861.861 450.567 953.691 408.095 905.852 371.793Z" stroke="#047857" stroke-opacity="0.3" stroke-width="4.66667" stroke-miterlimit="10" stroke-linecap="round" stroke-linejoin="round"/>
<path d="M878.681 441.464C878.681 441.464 874.827 480.942 830.808 491.845C830.808 491.845 836 436.212 860.694 429.53" stroke="#047857" stroke-opacity="0.3" stroke-width="4.66667" stroke-miterlimit="10" stroke-linecap="round" stroke-linejoin="round"/>
<path d="M919.657 394.027C919.657 394.027 947.185 410.561 919.815 446.603C919.815 446.603 909.582 438.533 904.659 422.129" stroke="#047857" stroke-opacity="0.3" stroke-width="4.66667" stroke-miterlimit="10" stroke-linecap="round" stroke-linejoin="round"/>
<path d="M886.516 370.508C886.516 370.508 860.264 361.472 845.797 386.709C845.797 386.709 849.578 395.449 865.446 395.449" stroke="#047857" stroke-opacity="0.3" stroke-width="4.66667" stroke-miterlimit="10" stroke-linecap="round" stroke-linejoin="round"/>
<path d="M904.659 424.075C904.659 424.075 919.657 459.99 891.215 475.869C891.215 475.869 875.596 466.047 878.681 441.464" stroke="#047857" stroke-opacity="0.3" stroke-width="4.66667" stroke-miterlimit="10" stroke-linecap="round" stroke-linejoin="round"/>
<path d="M853.109 393.075C853.109 393.075 836.368 401.18 829.643 416.661C829.643 416.661 830.824 431.689 852.277 433.093" stroke="#047857" stroke-opacity="0.3" stroke-width="4.66667" stroke-miterlimit="10" stroke-linecap="round" stroke-linejoin="round"/>
<path d="M886.515 471.561C886.515 471.561 878.37 487.825 859.748 490.997L830.808 491.845" stroke="#047857" stroke-opacity="0.3" stroke-width="4.66667" stroke-miterlimit="10" stroke-linecap="round" stroke-linejoin="round"/>
<path d="M830.808 491.845L821.398 466.048C821.398 466.048 818.573 444.946 834.969 426.586" stroke="#047857" stroke-opacity="0.3" stroke-width="4.66667" stroke-miterlimit="10" stroke-linecap="round" stroke-linejoin="round"/>
<path d="M948.705 363.619V312.751" stroke="#047857" stroke-opacity="0.3" stroke-width="4.66667" stroke-miterlimit="10" stroke-linecap="round" stroke-linejoin="round"/>
<path d="M963.177 344.155C963.177 344.155 975.931 291.972 1025.83 309.961C1025.83 309.961 1013.14 354.333 963.177 344.155Z" stroke="#047857" stroke-opacity="0.3" stroke-width="4.66667" stroke-miterlimit="10" stroke-linecap="round" stroke-linejoin="round"/>
<path d="M932.851 344.155C932.851 344.155 920.097 291.972 870.199 309.961C870.199 309.961 882.897 354.333 932.851 344.155Z" stroke="#047857" stroke-opacity="0.3" stroke-width="4.66667" stroke-miterlimit="10" stroke-linecap="round" stroke-linejoin="round"/>
<path d="M963.177 344.155L989.867 328.984" stroke="#047857" stroke-opacity="0.3" stroke-width="4.66667" stroke-miterlimit="10" stroke-linecap="round" stroke-linejoin="round"/>
<path d="M932.851 344.155L908.599 328.984" stroke="#047857" stroke-opacity="0.3" stroke-width="4.66667" stroke-miterlimit="10" stroke-linecap="round" stroke-linejoin="round"/>
<path d="M204.108 496.608C236.193 505.621 242.918 480.461 242.918 480.461" stroke="#047857" stroke-opacity="0.3" stroke-width="4.66667" stroke-miterlimit="10" stroke-linecap="round" stroke-linejoin="round"/>
<path d="M204.108 496.607C204.108 496.607 174.347 544.834 123.727 455.619C123.727 455.619 223.673 439.826 204.108 496.607Z" stroke="#047857" stroke-opacity="0.3" stroke-width="4.66667" stroke-miterlimit="10" stroke-linecap="round" stroke-linejoin="round"/>
<path d="M142.777 453.824C142.777 453.824 117.609 423.164 74.9614 438.59C74.9614 438.59 110.223 481.932 134.458 473.752" stroke="#047857" stroke-opacity="0.3" stroke-width="4.66667" stroke-miterlimit="10" stroke-linecap="round" stroke-linejoin="round"/>
<path d="M203.211 470.451C203.211 470.451 216.888 441.399 174.093 426.673C174.093 426.673 170.085 439.069 175.118 455.441" stroke="#047857" stroke-opacity="0.3" stroke-width="4.66667" stroke-miterlimit="10" stroke-linecap="round" stroke-linejoin="round"/>
<path d="M188.748 508.436C188.748 508.436 171.955 530.55 145.899 517.622C145.899 517.622 144.177 508.253 157.366 499.426" stroke="#047857" stroke-opacity="0.3" stroke-width="4.66667" stroke-miterlimit="10" stroke-linecap="round" stroke-linejoin="round"/>
<path d="M174.036 453.819C174.036 453.819 166.518 415.638 134.046 418.261C134.046 418.261 126.53 435.114 142.777 453.823" stroke="#047857" stroke-opacity="0.3" stroke-width="4.66667" stroke-miterlimit="10" stroke-linecap="round" stroke-linejoin="round"/>
<path d="M148.429 508.267C148.429 508.267 130.02 510.832 115.815 501.717C115.815 501.717 108.439 488.568 125.475 475.475" stroke="#047857" stroke-opacity="0.3" stroke-width="4.66667" stroke-miterlimit="10" stroke-linecap="round" stroke-linejoin="round"/>
<path d="M132.54 424.461C132.54 424.461 116.729 415.467 99.4903 423.193L74.9614 438.59" stroke="#047857" stroke-opacity="0.3" stroke-width="4.66667" stroke-miterlimit="10" stroke-linecap="round" stroke-linejoin="round"/>
<path d="M74.9614 438.59L81.4914 465.262C81.4914 465.262 90.8716 484.373 114.717 490.51" stroke="#047857" stroke-opacity="0.3" stroke-width="4.66667" stroke-miterlimit="10" stroke-linecap="round" stroke-linejoin="round"/>
<path d="M273.927 449.877C270.018 482.979 244.203 479.605 244.203 479.605" stroke="#047857" stroke-opacity="0.3" stroke-width="4.66667" stroke-miterlimit="10" stroke-linecap="round" stroke-linejoin="round"/>
<path d="M273.927 449.877C273.927 449.877 329.842 440.749 266.666 359.942C266.666 359.942 213.974 446.314 273.927 449.877Z" stroke="#047857" stroke-opacity="0.3" stroke-width="4.66667" stroke-miterlimit="10" stroke-linecap="round" stroke-linejoin="round"/>
<path d="M257.75 376.866C257.75 376.866 238.99 341.913 269.509 308.364C269.509 308.364 296.143 357.485 279.333 376.774" stroke="#047857" stroke-opacity="0.3" stroke-width="4.66667" stroke-miterlimit="10" stroke-linecap="round" stroke-linejoin="round"/>
<path d="M250.083 439.077C250.083 439.077 218.01 440.65 220.709 395.474C220.709 395.474 233.7 396.488 246.918 407.379" stroke="#047857" stroke-opacity="0.3" stroke-width="4.66667" stroke-miterlimit="10" stroke-linecap="round" stroke-linejoin="round"/>
<path d="M290.708 440.183C290.708 440.183 317.551 433.089 315.534 404.073C315.534 404.073 307.532 398.909 294.343 407.736" stroke="#047857" stroke-opacity="0.3" stroke-width="4.66667" stroke-miterlimit="10" stroke-linecap="round" stroke-linejoin="round"/>
<path d="M245.836 405.762C245.836 405.762 213.391 384.26 228.194 355.244C228.194 355.244 246.64 354.715 257.75 376.866" stroke="#047857" stroke-opacity="0.3" stroke-width="4.66667" stroke-miterlimit="10" stroke-linecap="round" stroke-linejoin="round"/>
<path d="M305.915 402.852C305.915 402.852 315.321 386.801 312.299 370.198C312.299 370.198 302.955 358.363 284.347 369.132" stroke="#047857" stroke-opacity="0.3" stroke-width="4.66667" stroke-miterlimit="10" stroke-linecap="round" stroke-linejoin="round"/>
<path d="M234.501 356.212C234.501 356.212 232.218 338.158 245.93 325.167L269.509 308.363" stroke="#047857" stroke-opacity="0.3" stroke-width="4.66667" stroke-miterlimit="10" stroke-linecap="round" stroke-linejoin="round"/>
<path d="M269.509 308.364L291.678 324.569C291.678 324.569 305.765 340.529 302.352 364.912" stroke="#047857" stroke-opacity="0.3" stroke-width="4.66667" stroke-miterlimit="10" stroke-linecap="round" stroke-linejoin="round"/>
<path d="M242.864 480.506L271.157 522.774" stroke="#047857" stroke-opacity="0.3" stroke-width="4.66667" stroke-miterlimit="10" stroke-linecap="round" stroke-linejoin="round"/>
<path d="M241.658 504.728C241.658 504.728 260.092 555.187 208.616 567.995C208.616 567.995 194.481 524.059 241.658 504.728Z" stroke="#047857" stroke-opacity="0.3" stroke-width="4.66667" stroke-miterlimit="10" stroke-linecap="round" stroke-linejoin="round"/>
<path d="M266.865 487.857C266.865 487.857 306.489 524.13 337.946 481.425C337.946 481.425 302.713 451.614 266.865 487.857Z" stroke="#047857" stroke-opacity="0.3" stroke-width="4.66667" stroke-miterlimit="10" stroke-linecap="round" stroke-linejoin="round"/>
<path d="M241.658 504.728L227.92 532.184" stroke="#047857" stroke-opacity="0.3" stroke-width="4.66667" stroke-miterlimit="10" stroke-linecap="round" stroke-linejoin="round"/>
<path d="M266.865 487.857L295.457 486.977" stroke="#047857" stroke-opacity="0.3" stroke-width="4.66667" stroke-miterlimit="10" stroke-linecap="round" stroke-linejoin="round"/>
<path d="M133.258 691.183C133.258 691.183 186.838 687.327 185.007 740.34C185.007 740.34 138.877 741.858 133.258 691.183Z" stroke="#047857" stroke-opacity="0.3" stroke-width="4.66667" stroke-miterlimit="10" stroke-linecap="round" stroke-linejoin="round"/>
<path d="M133.258 691.183L155.876 711.936" stroke="#047857" stroke-opacity="0.3" stroke-width="4.66667" stroke-miterlimit="10" stroke-linecap="round" stroke-linejoin="round"/>
<path d="M959.368 530.658C959.368 530.658 1012.95 526.8 1011.12 579.814C1011.12 579.814 964.989 581.327 959.368 530.658Z" stroke="#047857" stroke-opacity="0.3" stroke-width="4.66667" stroke-miterlimit="10" stroke-linecap="round" stroke-linejoin="round"/>
<path d="M959.368 530.658L981.988 551.408" stroke="#047857" stroke-opacity="0.3" stroke-width="4.66667" stroke-miterlimit="10" stroke-linecap="round" stroke-linejoin="round"/>
<path d="M1497.54 62.0312C1497.54 62.0312 1551.12 58.1757 1549.29 111.189C1549.29 111.189 1503.16 112.707 1497.54 62.0312Z" stroke="#047857" stroke-opacity="0.3" stroke-width="4.66667" stroke-miterlimit="10" stroke-linecap="round" stroke-linejoin="round"/>
<path d="M1497.54 62.0312L1520.16 82.7839" stroke="#047857" stroke-opacity="0.3" stroke-width="4.66667" stroke-miterlimit="10" stroke-linecap="round" stroke-linejoin="round"/>
<path d="M42.0619 780.805C36.6005 763.615 17.9492 744.021 -26.4478 739.451C-26.4478 739.451 -25.132 796.432 17.6479 805.326" stroke="#047857" stroke-opacity="0.3" stroke-width="4.66667" stroke-miterlimit="10" stroke-linecap="round" stroke-linejoin="round"/>
<path d="M51.4233 784.571C51.4233 784.571 49.18 768.475 60.4675 750.259C60.4675 750.259 100.279 772.721 105.97 808.678" stroke="#047857" stroke-opacity="0.3" stroke-width="4.66667" stroke-miterlimit="10" stroke-linecap="round" stroke-linejoin="round"/>
<path d="M56.7459 757.169C51.0031 743.9 16.2847 719.715 16.2847 719.715C9.41222 734.87 15.1392 750.985 15.1392 750.985" stroke="#047857" stroke-opacity="0.3" stroke-width="4.66667" stroke-miterlimit="10" stroke-linecap="round" stroke-linejoin="round"/>
<path d="M15.8328 720.206L-9.13995 697.091" stroke="#047857" stroke-opacity="0.3" stroke-width="4.66667" stroke-miterlimit="10" stroke-linecap="round" stroke-linejoin="round"/>
<path d="M1422.52 -44.8494C1422.52 -44.8494 1472.03 -19.9164 1422.52 42.839C1422.52 42.839 1376.57 -9.30571 1422.52 -44.8494Z" stroke="#047857" stroke-opacity="0.3" stroke-width="4.66667" stroke-miterlimit="10" stroke-linecap="round" stroke-linejoin="round"/>
<path d="M1443.07 -277.88C1443.07 -277.88 1500.16 -287.815 1524.59 -223.197C1542.2 -176.578 1533.11 -114.155 1532.89 39.3447" stroke="#047857" stroke-opacity="0.3" stroke-width="4.66667" stroke-miterlimit="10" stroke-linecap="round" stroke-linejoin="round"/>
<path d="M1400.01 -277.801C1400.01 -277.801 1345.3 -287.815 1320.87 -223.197C1303.24 -176.578 1312.35 -114.155 1312.59 39.3447" stroke="#047857" stroke-opacity="0.3" stroke-width="4.66667" stroke-miterlimit="10" stroke-linecap="round" stroke-linejoin="round"/>
</svg>
